<?xml version="1.0" standalone="no"?>
<!DOCTYPE svg PUBLIC "-//W3C//DTD SVG 20010904//EN"
 "http://www.w3.org/TR/2001/REC-SVG-20010904/DTD/svg10.dtd">
<svg version="1.0" xmlns="http://www.w3.org/2000/svg"
 width="1920.000000pt" height="1080.000000pt" viewBox="0 0 1920.000000 1080.000000"
 preserveAspectRatio="xMidYMid meet">

<g transform="translate(0.000000,1080.000000) scale(0.100000,-0.100000)"
fill="#000000" stroke="none">
<path d="M10175 9839 c-115 -4 -257 -12 -315 -18 -58 -7 -159 -16 -225 -21
-193 -16 -418 -46 -444 -59 -13 -7 -42 -14 -65 -15 -37 -1 -41 -4 -44 -30 -3
-19 4 -37 21 -55 35 -37 102 -183 125 -271 11 -41 29 -109 40 -150 10 -41 25
-97 32 -125 7 -27 16 -90 20 -139 5 -77 9 -91 29 -108 21 -16 26 -17 45 -5 18
12 24 12 46 -2 22 -14 101 -16 785 -16 418 0 766 -1 774 -2 11 -3 12 -73 8
-415 -3 -227 -10 -433 -15 -458 -15 -70 -31 -353 -38 -699 -6 -271 -8 -311
-20 -290 -7 13 -13 30 -14 38 0 8 -6 22 -14 30 -15 16 -66 194 -66 228 0 11
-19 57 -43 104 -23 46 -49 104 -57 128 -8 24 -32 62 -55 85 -53 55 -125 76
-261 76 -90 0 -105 -3 -161 -30 -43 -21 -88 -57 -147 -116 -47 -48 -86 -90
-86 -95 0 -4 -16 -35 -35 -68 -19 -32 -35 -64 -35 -71 0 -6 -9 -23 -20 -38
-10 -15 -31 -74 -46 -132 -25 -97 -27 -122 -28 -315 -1 -193 1 -222 27 -350
15 -77 35 -155 43 -173 9 -18 19 -54 24 -80 34 -195 91 -452 105 -479 8 -15
15 -37 15 -48 0 -26 35 -195 55 -265 16 -58 30 -120 47 -210 5 -30 14 -64 19
-75 12 -29 53 -237 79 -395 23 -146 35 -198 56 -245 7 -17 18 -69 24 -115 7
-47 22 -157 34 -245 12 -88 19 -161 15 -163 -4 -2 -34 8 -68 22 -66 27 -197
66 -304 90 -37 9 -88 25 -112 36 -24 11 -83 29 -132 40 -123 29 -286 81 -298
95 -5 6 -34 22 -63 34 -40 17 -57 19 -72 11 -21 -11 -23 -19 -20 -57 2 -36
-50 -101 -217 -269 -136 -137 -180 -174 -313 -263 -184 -124 -220 -156 -220
-192 0 -35 14 -46 91 -64 96 -24 158 -44 219 -72 89 -40 222 -103 260 -123 20
-10 83 -34 141 -53 58 -19 138 -51 177 -71 40 -20 152 -59 249 -87 97 -28 184
-54 193 -59 50 -27 321 -68 496 -77 l142 -6 6 -45 c3 -25 6 -75 6 -111 0 -79
19 -258 31 -286 11 -28 17 -76 34 -275 25 -295 35 -393 45 -435 20 -82 42
-226 37 -239 -4 -9 -28 -15 -72 -18 -64 -4 -69 -6 -107 -46 l-39 -42 3 -83 3
-82 40 -20 c80 -40 317 -27 360 19 18 20 105 76 118 76 14 0 12 150 -3 217
-22 95 -40 336 -40 542 0 120 -5 244 -10 277 -22 130 -32 180 -40 199 -11 28
-30 207 -30 282 l0 62 908 4 c793 3 918 5 996 20 49 9 92 15 94 12 2 -2 9 -39
14 -82 6 -43 13 -85 18 -93 5 -11 27 -16 73 -18 59 -3 67 -1 78 19 15 29 39
145 39 191 0 31 4 39 23 43 184 41 307 65 372 75 118 17 197 37 206 52 20 30
-4 98 -35 98 -28 0 -122 156 -153 255 -21 67 -47 199 -62 315 -10 74 -24 98
-64 105 -64 11 -293 25 -403 25 -115 0 -396 23 -491 40 -43 7 -62 18 -105 60
-135 129 -177 167 -212 190 -20 14 -44 32 -53 39 -8 8 -37 25 -62 37 -46 21
-48 23 -70 100 -13 44 -27 84 -31 89 -8 10 -120 420 -120 440 0 7 -7 25 -15
42 -8 16 -19 52 -25 79 -9 46 -52 183 -82 266 -8 20 -22 45 -31 55 -15 18 -15
24 7 105 36 129 89 435 105 608 24 261 102 676 140 748 5 9 19 55 31 102 12
47 39 150 60 230 21 80 61 219 88 310 28 91 56 192 62 225 7 33 18 74 25 90 8
17 19 66 26 110 14 95 82 392 103 457 16 47 27 121 47 325 l12 123 35 6 c68
13 1186 -21 1357 -41 84 -10 87 -5 104 186 5 53 16 109 24 125 8 16 20 56 27
89 7 33 28 110 46 172 36 117 42 178 22 206 -7 9 -49 30 -93 48 -72 28 -96 33
-230 40 -182 10 -320 24 -371 38 -77 21 -311 60 -394 66 -47 3 -150 13 -230
20 -80 8 -192 17 -250 21 -58 3 -127 12 -155 19 -59 16 -154 27 -475 55 -129
11 -271 25 -316 30 -91 11 -1015 11 -1339 -1z m1344 -89 c31 -5 169 -19 306
-30 309 -26 413 -38 435 -50 10 -5 103 -16 206 -24 470 -38 567 -48 694 -72
74 -14 146 -29 160 -34 31 -12 186 -27 386 -39 118 -7 161 -13 199 -30 47 -21
48 -22 42 -59 -4 -20 -15 -66 -25 -102 -11 -36 -27 -94 -37 -130 -9 -36 -20
-72 -25 -81 -16 -31 -40 -142 -40 -184 0 -23 -3 -56 -6 -73 -6 -28 -8 -29 -38
-21 -88 23 -1285 44 -1384 25 -55 -11 -60 -23 -77 -191 -19 -179 -32 -272 -39
-284 -4 -5 -10 -29 -15 -53 -5 -24 -25 -113 -45 -198 -21 -85 -44 -195 -53
-245 -8 -49 -19 -97 -24 -106 -4 -9 -15 -52 -24 -95 -9 -44 -28 -117 -42 -164
-14 -47 -32 -109 -40 -139 -7 -30 -18 -60 -22 -65 -5 -6 -16 -40 -24 -76 -9
-36 -26 -105 -37 -155 -25 -104 -59 -223 -70 -246 -22 -43 -82 -304 -105 -459
-9 -58 -23 -134 -31 -170 -8 -36 -14 -88 -14 -117 0 -136 -81 -610 -115 -677
-45 -86 -105 -416 -105 -573 0 -111 -21 -376 -32 -408 -6 -16 -16 -113 -22
-215 -11 -172 -13 -187 -35 -209 -20 -20 -21 -25 -8 -44 12 -19 25 -22 88 -24
41 -2 151 -8 244 -13 94 -6 242 -15 331 -20 88 -5 172 -13 185 -19 23 -9 78
-18 239 -41 150 -21 280 -31 515 -40 132 -4 268 -12 301 -15 l62 -7 22 -132
c22 -132 72 -308 95 -336 7 -8 22 -34 33 -56 12 -23 33 -56 48 -73 14 -18 25
-33 23 -35 -2 -2 -60 -13 -129 -25 -193 -33 -388 -78 -412 -95 -12 -9 -41 -16
-63 -16 -22 0 -94 -10 -160 -22 -116 -21 -149 -22 -1025 -25 -880 -4 -1477 6
-1605 27 -135 22 -228 43 -253 56 -15 8 -33 14 -39 14 -24 0 -338 92 -351 103
-19 15 -110 53 -226 92 -54 19 -103 38 -110 43 -6 5 -36 19 -67 30 -30 11
-104 45 -163 76 -93 48 -160 73 -253 93 -13 3 -23 8 -23 12 0 4 64 49 143 101
121 81 167 119 308 260 91 91 185 194 208 228 24 34 46 62 49 62 4 0 16 -7 26
-15 11 -8 44 -22 75 -30 31 -9 65 -20 76 -25 11 -5 74 -23 140 -39 66 -17 161
-44 210 -60 50 -16 137 -42 195 -57 58 -15 119 -34 135 -44 17 -9 66 -25 110
-34 44 -10 93 -22 109 -27 35 -11 116 -12 133 -1 21 13 32 58 73 300 32 187
40 262 40 359 0 81 5 135 14 160 8 21 17 54 20 73 3 19 14 82 26 140 11 58 27
155 35 215 8 61 24 164 35 230 52 306 61 383 70 598 5 126 12 231 14 235 2 4
9 117 16 252 11 251 32 469 50 524 5 17 14 222 20 456 6 234 15 461 21 505 25
216 29 296 29 631 0 409 5 384 -84 404 -60 13 -1575 3 -1592 -11 -8 -6 -13 19
-17 88 -3 54 -10 109 -15 123 -6 14 -25 77 -42 140 -50 181 -76 260 -111 328
-26 54 -29 66 -18 77 12 11 211 39 369 51 30 3 129 12 220 21 91 8 257 19 370
23 319 11 1277 11 1339 0z m-948 -2146 c61 -18 129 -75 129 -109 0 -11 14 -45
30 -75 46 -84 80 -159 80 -176 0 -35 51 -204 78 -259 44 -89 45 -94 28 -232
-9 -71 -20 -234 -26 -363 -6 -129 -15 -251 -20 -270 -4 -19 -8 -28 -9 -19 -3
49 -104 130 -236 188 -73 32 -88 35 -175 36 -127 0 -134 -18 -10 -26 52 -4
108 -12 124 -18 l29 -12 -29 -32 c-16 -17 -35 -35 -41 -40 -18 -11 -17 -102 2
-207 18 -105 42 -307 51 -420 3 -47 14 -137 25 -200 10 -63 19 -149 19 -191 0
-41 4 -79 9 -85 16 -18 34 -302 32 -524 -1 -210 -3 -238 -36 -420 -19 -107
-35 -205 -35 -217 0 -27 -24 -30 -94 -11 -52 14 -46 -4 -76 223 -26 202 -49
336 -59 350 -13 17 -29 85 -50 220 -27 164 -70 384 -81 410 -5 11 -13 43 -19
70 -23 112 -32 153 -46 205 -15 50 -44 193 -59 281 -4 21 -13 50 -20 65 -8 16
-26 90 -41 164 -55 284 -74 370 -86 385 -4 6 -20 73 -36 150 -25 126 -28 159
-27 330 0 160 4 205 23 283 26 110 36 138 56 158 8 9 15 23 15 32 0 9 16 43
35 75 19 32 35 62 35 66 0 5 36 45 80 89 110 111 173 142 291 142 48 0 109 -7
140 -16z m110 -1377 c81 -49 119 -78 133 -99 24 -36 46 -165 46 -264 0 -97
-32 -383 -48 -424 -5 -14 -13 -52 -16 -85 -27 -222 -89 -601 -100 -613 -3 -3
-6 17 -6 44 0 83 -21 308 -31 326 -5 10 -9 48 -9 85 0 38 -9 120 -19 183 -11
63 -22 153 -25 200 -7 93 -31 300 -46 395 -5 33 -12 88 -16 122 l-6 62 43 46
c23 25 47 45 53 45 6 0 27 -10 47 -23z m1027 -971 c21 -47 71 -209 92 -296 7
-30 17 -62 21 -70 5 -8 34 -114 65 -235 32 -121 61 -222 65 -225 3 -3 17 -41
31 -85 25 -85 17 -77 140 -153 89 -56 124 -85 173 -139 26 -29 52 -53 59 -53
15 0 62 -48 54 -55 -3 -4 -43 3 -89 15 -58 14 -143 24 -269 30 -174 9 -186 11
-200 32 -33 49 -63 79 -97 94 -19 10 -37 24 -40 33 -9 29 -45 115 -74 178 -53
113 -62 150 -54 227 3 39 10 152 15 251 13 238 32 386 66 493 6 20 22 5 42
-42z m-68 -1008 c22 -48 40 -94 40 -102 0 -15 51 -58 81 -69 9 -3 27 -20 39
-38 l23 -32 -144 8 c-79 4 -144 8 -145 8 0 1 4 79 10 172 12 183 21 219 42
169 8 -16 31 -68 54 -116z m1450 -1326 c0 -21 -25 -141 -35 -164 -5 -14 -19
-18 -55 -18 l-47 0 -7 68 c-3 37 -9 77 -12 90 -6 21 -3 22 47 23 30 0 63 4 74
9 30 13 35 12 35 -8z m-2264 -52 l41 0 7 -112 c9 -161 17 -242 26 -253 7 -10
20 -71 40 -189 5 -33 10 -157 10 -275 0 -214 19 -471 40 -543 6 -21 10 -68 8
-105 -3 -67 -3 -67 -48 -100 -25 -18 -52 -38 -60 -45 -54 -46 -222 -63 -313
-32 l-47 16 0 64 c0 59 3 67 33 100 29 32 41 37 88 41 96 7 99 9 99 50 0 37
-22 173 -40 248 -10 41 -20 133 -45 430 -18 215 -26 277 -35 290 -8 12 -28
200 -34 334 l-5 94 97 -6 c53 -4 115 -7 138 -7z"/>
<path d="M10319 7304 c-16 -43 -6 -134 16 -150 28 -20 53 -17 80 11 20 19 25
34 25 73 0 61 -14 80 -67 88 -40 6 -43 5 -54 -22z"/>
<path d="M9969 7123 c-10 -28 -5 -67 16 -120 32 -78 95 -54 95 36 0 39 -6 55
-27 80 -35 39 -70 41 -84 4z"/>
<path d="M10385 7056 c-22 -11 -53 -33 -67 -47 -18 -17 -39 -26 -59 -26 -22 0
-39 -8 -55 -26 -18 -21 -32 -27 -62 -27 -29 0 -50 -8 -77 -30 -21 -17 -49 -33
-61 -36 -35 -9 -64 -63 -64 -118 0 -61 10 -78 65 -115 58 -39 101 -41 117 -6
6 14 15 25 19 25 5 0 14 19 20 43 18 63 69 136 97 137 12 0 31 9 42 20 21 21
55 26 65 10 3 -5 38 -10 76 -10 53 0 71 4 75 15 4 8 18 15 34 15 45 0 90 28
90 56 0 40 -66 122 -108 134 -55 15 -102 11 -147 -14z m135 -16 c23 -7 44 -24
63 -50 15 -22 27 -44 27 -48 0 -10 -51 -32 -76 -32 -12 0 -27 -7 -34 -15 -16
-20 -88 -19 -128 1 -18 8 -36 13 -41 10 -5 -3 -11 8 -13 24 -4 24 2 35 28 57
42 35 94 62 119 63 11 0 36 -5 55 -10z m-327 -172 c4 -25 -1 -41 -20 -66 -14
-18 -29 -49 -35 -69 -5 -20 -20 -50 -31 -67 -12 -17 -23 -33 -25 -35 -4 -7
-86 40 -99 57 -16 20 -17 73 -1 107 7 15 30 34 55 46 24 11 53 29 63 39 12 12
34 20 54 20 30 0 34 -3 39 -32z"/>
<path d="M6750 9829 c-30 -4 -93 -13 -140 -19 -47 -7 -116 -20 -155 -30 -38
-10 -106 -24 -150 -30 -125 -17 -142 -25 -164 -73 -17 -39 -19 -83 -24 -537
-5 -460 -11 -576 -38 -785 -19 -145 -27 -227 -48 -470 -55 -634 -68 -755 -95
-855 -23 -85 -64 -323 -87 -495 -11 -85 -24 -167 -30 -183 -6 -15 -14 -47 -19
-72 -4 -25 -15 -85 -24 -135 -28 -155 -77 -369 -92 -402 -15 -34 -62 -216 -89
-347 -8 -43 -24 -97 -34 -120 -11 -22 -31 -90 -46 -151 -26 -108 -81 -280 -95
-300 -4 -5 -18 -41 -30 -80 -12 -38 -26 -75 -31 -80 -4 -6 -16 -33 -27 -61
-11 -28 -30 -61 -42 -75 -29 -32 -129 -267 -130 -303 0 -39 93 -138 184 -194
39 -24 78 -47 86 -49 8 -3 60 -27 115 -53 55 -26 121 -55 147 -63 25 -9 75
-30 110 -46 57 -27 121 -47 368 -113 41 -11 98 -28 125 -38 58 -21 90 -28 315
-70 91 -17 192 -38 225 -46 156 -39 263 -53 405 -54 228 0 482 22 680 59 30 6
98 18 150 27 122 22 215 49 265 78 22 13 83 45 135 72 52 27 110 65 130 84 20
19 55 49 80 65 67 46 335 315 357 360 12 22 31 49 43 60 21 18 93 158 146 281
42 96 48 166 41 514 -6 326 -18 446 -52 549 -8 25 -15 58 -15 74 0 39 -107
368 -130 402 -4 6 -15 35 -25 65 -23 70 -78 208 -114 285 -16 33 -45 96 -66
140 -20 44 -51 103 -70 130 -18 28 -44 70 -58 95 -30 54 -165 244 -199 280
-12 14 -45 50 -73 81 -56 64 -176 167 -218 188 -15 8 -26 19 -24 25 2 6 46 39
98 73 52 34 108 74 124 89 17 15 53 42 80 60 87 57 299 272 351 356 14 24 39
57 54 73 93 102 147 260 157 461 6 118 5 122 -27 210 -61 168 -99 229 -216
344 -59 58 -122 120 -140 138 -19 19 -57 51 -85 72 -28 21 -101 87 -162 147
l-112 109 -120 43 c-66 24 -133 49 -150 56 -45 19 -303 81 -440 105 -66 12
-127 26 -137 31 -10 5 -73 21 -140 34 -109 22 -147 25 -338 24 -118 -1 -240
-5 -270 -10z m635 -109 c44 -12 172 -41 285 -65 268 -58 333 -76 538 -151 87
-31 99 -40 180 -118 48 -47 125 -118 172 -158 47 -40 136 -122 198 -183 128
-124 175 -193 217 -324 26 -79 27 -92 22 -205 -8 -159 -33 -251 -93 -336 -24
-36 -60 -87 -79 -115 -38 -56 -109 -138 -171 -200 -82 -81 -152 -145 -158
-145 -12 0 -116 -82 -116 -91 0 -5 -5 -9 -11 -9 -6 0 -39 -20 -73 -45 -35 -25
-67 -45 -71 -45 -14 0 -113 -91 -117 -108 -9 -32 10 -61 54 -83 75 -38 169
-116 256 -213 58 -64 162 -200 162 -211 0 -4 18 -28 41 -53 23 -26 45 -57 50
-70 5 -12 26 -48 46 -80 21 -31 55 -95 77 -142 21 -47 56 -123 78 -170 23 -47
58 -136 80 -199 21 -63 43 -120 48 -126 14 -17 110 -317 110 -345 0 -14 12
-70 26 -125 52 -206 62 -906 14 -970 -4 -5 -13 -28 -20 -50 -19 -61 -98 -215
-120 -234 -11 -9 -26 -29 -34 -44 -38 -76 -252 -290 -361 -362 -22 -15 -49
-37 -60 -50 -20 -24 -96 -70 -173 -106 -24 -11 -59 -31 -78 -44 -53 -36 -124
-53 -384 -95 -36 -6 -104 -17 -151 -24 -238 -40 -682 -46 -799 -12 -64 18
-131 33 -360 76 -193 36 -261 51 -275 61 -10 7 -186 57 -235 66 -77 15 -213
59 -274 87 -39 18 -89 39 -111 46 -22 7 -79 32 -128 56 -48 23 -96 46 -108 49
-62 20 -212 136 -227 176 -8 19 77 210 108 244 18 20 110 225 110 245 0 6 9
28 20 48 25 47 86 243 110 350 10 45 23 89 30 96 15 19 25 55 70 256 22 96 51
204 64 240 24 64 51 183 106 463 16 78 33 160 39 182 6 22 20 112 31 200 12
88 34 225 51 305 59 285 81 434 99 665 22 288 51 612 61 680 40 278 58 621 59
1106 l0 335 123 18 c67 10 127 22 133 27 5 4 59 15 120 24 60 9 129 20 154 25
25 5 162 7 305 5 232 -2 269 -5 340 -25z"/>
<path d="M6947 9300 c-27 -5 -52 -12 -55 -15 -4 -4 -5 -97 -4 -208 3 -175 1
-213 -16 -282 -27 -112 -41 -248 -46 -475 -5 -198 -16 -288 -43 -348 -8 -18
-16 -74 -19 -125 -3 -51 -10 -116 -16 -145 -9 -40 -9 -55 1 -65 26 -26 275
-43 386 -27 85 13 215 51 251 75 12 8 44 20 71 26 53 13 152 56 223 95 25 14
92 48 150 75 58 28 114 58 125 68 11 10 51 37 90 60 120 73 268 187 323 250
43 49 57 75 73 131 21 76 24 141 9 169 -5 10 -14 47 -20 83 -11 72 -67 204
-96 229 -11 9 -36 24 -56 34 -20 9 -50 29 -65 43 -15 15 -79 50 -141 79 -62
29 -127 63 -145 76 -18 13 -75 43 -127 66 -52 24 -102 49 -110 56 -8 7 -46 28
-85 46 l-70 34 -270 2 c-148 0 -292 -3 -318 -7z m606 -102 c29 -12 66 -32 83
-45 17 -13 34 -23 38 -23 16 0 192 -85 211 -101 11 -10 72 -43 135 -73 63 -31
133 -69 155 -86 22 -16 55 -36 73 -45 42 -21 80 -97 93 -185 5 -36 14 -86 21
-112 17 -69 -4 -147 -57 -209 -41 -48 -124 -119 -167 -142 -12 -7 -50 -32 -83
-55 -126 -90 -162 -112 -240 -149 -44 -21 -98 -48 -120 -60 -102 -55 -214
-106 -251 -114 -23 -4 -70 -21 -105 -38 -35 -17 -91 -37 -124 -46 -84 -22
-262 -31 -318 -15 l-45 12 -1 83 c-1 51 4 100 14 127 32 95 46 206 51 403 5
216 18 352 42 455 10 41 17 130 19 240 2 96 6 181 8 188 3 9 65 12 260 12 241
0 259 -1 308 -22z"/>
<path d="M6670 6762 c-22 -7 -40 -33 -40 -58 0 -12 -7 -35 -15 -50 -8 -16 -15
-55 -15 -86 0 -92 -57 -417 -85 -483 -7 -16 -23 -70 -35 -120 -46 -195 -54
-223 -90 -320 -21 -55 -58 -162 -84 -237 -25 -75 -50 -145 -55 -155 -6 -10
-31 -81 -57 -158 -25 -77 -56 -158 -69 -180 -30 -52 -67 -143 -114 -280 -21
-60 -55 -150 -75 -200 -35 -88 -35 -90 -18 -115 16 -20 34 -27 123 -41 119
-19 186 -34 244 -53 49 -17 231 -51 345 -65 223 -29 858 -36 1020 -12 67 9
181 50 209 74 9 8 57 30 106 50 169 69 202 93 330 235 85 94 137 182 186 312
9 25 40 101 69 170 48 114 53 135 62 242 8 88 8 132 -1 170 -31 135 -42 189
-57 268 -21 107 -73 227 -133 305 -83 109 -206 243 -317 343 -38 35 -87 81
-109 101 -130 121 -268 190 -380 191 -33 0 -107 7 -165 15 -58 8 -174 19 -258
25 -84 5 -172 14 -195 19 -23 5 -68 15 -99 21 -32 6 -70 17 -85 25 -59 29
-129 52 -143 47z m220 -162 c41 -7 91 -16 111 -21 20 -5 105 -13 190 -19 85
-6 201 -17 259 -25 58 -8 132 -15 165 -15 33 0 71 -7 85 -15 14 -8 33 -14 43
-15 22 0 137 -80 188 -130 19 -19 84 -78 142 -130 59 -52 107 -98 107 -102 0
-4 37 -48 83 -98 94 -101 162 -212 188 -306 10 -36 27 -119 39 -186 11 -67 25
-127 31 -135 16 -18 2 -245 -17 -281 -8 -15 -14 -35 -14 -44 0 -20 -48 -140
-106 -263 -20 -44 -45 -99 -55 -123 -10 -24 -34 -60 -53 -80 -19 -20 -58 -63
-87 -94 -29 -32 -57 -58 -62 -58 -6 0 -23 -11 -37 -25 -23 -22 -125 -71 -230
-110 -20 -7 -52 -24 -72 -37 -70 -48 -209 -68 -451 -67 -276 2 -591 15 -697
28 -130 17 -313 52 -326 62 -11 9 -253 59 -285 59 -24 0 -19 28 16 105 12 28
37 95 55 150 37 117 68 194 87 216 14 17 62 142 100 264 14 44 29 85 34 91 5
6 34 86 64 179 31 93 63 178 71 189 8 11 14 29 14 39 0 10 11 46 24 80 13 34
38 125 56 202 19 77 38 146 43 153 14 18 41 146 73 342 14 91 35 182 45 203
10 22 19 48 19 58 0 19 2 19 43 -4 23 -13 76 -30 117 -37z"/>
<path d="M5595 9770 c-11 -5 -177 -9 -370 -9 -194 -1 -441 -8 -555 -16 -285
-20 -537 -44 -590 -55 -25 -6 -137 -17 -250 -25 -292 -21 -386 -31 -549 -60
-99 -17 -181 -25 -262 -25 -65 0 -130 -4 -144 -10 -26 -10 -26 -10 -21 -97 3
-49 11 -104 17 -123 13 -41 28 -465 36 -995 6 -433 -11 -957 -32 -1020 -8 -22
-19 -107 -25 -190 -6 -82 -15 -163 -20 -180 -5 -16 -14 -75 -20 -130 -6 -55
-14 -113 -19 -130 -5 -16 -17 -79 -26 -140 -9 -60 -23 -124 -31 -142 -8 -17
-14 -39 -14 -50 0 -27 -12 -41 -40 -44 -19 -3 -26 -11 -28 -31 -3 -26 9 -46
106 -173 21 -27 44 -63 52 -79 20 -40 154 -192 188 -213 27 -17 100 -81 228
-201 39 -37 98 -90 130 -119 33 -29 93 -83 136 -120 103 -92 186 -161 288
-241 47 -37 153 -134 236 -217 190 -188 228 -223 286 -263 102 -70 137 -67
174 16 14 31 37 77 49 102 13 25 44 88 69 140 25 52 55 111 65 130 11 19 42
81 70 138 28 57 62 118 76 135 14 18 42 55 61 82 18 28 41 60 50 73 32 44 -14
100 -133 161 -23 11 -52 32 -65 44 -13 13 -67 47 -120 75 -54 28 -106 60 -117
71 -11 11 -39 28 -63 39 -23 10 -49 26 -57 35 -7 10 -18 17 -23 17 -5 0 -35
20 -66 44 -31 24 -67 46 -80 50 -12 4 -36 19 -54 34 -37 31 -102 71 -174 105
-28 14 -54 29 -58 35 -3 6 -55 34 -114 63 -59 29 -109 56 -110 61 -4 8 -89 50
-129 62 -42 13 -46 30 -20 87 79 181 108 347 116 660 l6 247 90 -29 c109 -35
156 -51 260 -91 44 -16 91 -33 105 -38 14 -4 77 -33 140 -64 125 -61 192 -77
225 -53 19 15 20 31 26 349 6 352 18 459 58 503 34 37 42 60 26 81 -12 17 -30
19 -152 22 -76 2 -226 -2 -333 -8 -107 -7 -243 -14 -301 -16 l-106 -5 -6 183
c-7 198 -31 373 -73 517 -8 29 -13 56 -10 59 8 7 202 38 301 47 44 4 85 10 90
15 6 4 35 10 65 13 56 6 248 27 419 47 159 19 233 29 286 41 30 6 239 13 513
16 437 5 465 6 483 24 17 17 18 33 13 241 -5 242 -19 431 -35 491 -7 26 -18
41 -35 47 -30 12 -82 12 -109 0z m69 -117 c6 -36 8 -93 21 -449 l5 -142 -428
-5 c-235 -4 -452 -10 -482 -16 -84 -14 -184 -28 -420 -56 -118 -14 -249 -29
-290 -34 -41 -5 -109 -15 -150 -21 -41 -7 -133 -21 -205 -31 -221 -33 -244
-48 -206 -132 25 -57 45 -143 71 -302 7 -38 15 -166 19 -283 5 -196 8 -215 25
-228 23 -16 285 -21 302 -5 5 5 128 13 273 17 l264 7 -7 -29 c-39 -151 -46
-228 -46 -495 l0 -270 -22 7 c-13 4 -70 30 -128 59 -58 29 -136 63 -175 75
-38 12 -94 33 -123 46 -29 13 -72 28 -95 34 -23 5 -88 25 -145 44 -79 27 -109
33 -128 26 -13 -5 -25 -11 -26 -12 -1 -2 -5 -129 -8 -283 -6 -211 -12 -309
-28 -400 -26 -154 -69 -282 -105 -316 -10 -9 -21 -35 -24 -58 -5 -40 -5 -41
33 -57 22 -9 62 -27 91 -40 28 -13 55 -24 59 -24 4 0 22 -11 40 -25 18 -14 36
-25 40 -25 12 0 114 -52 120 -61 3 -5 12 -9 21 -9 9 0 26 -8 37 -19 12 -10 62
-40 111 -67 50 -26 113 -65 141 -86 28 -21 55 -38 61 -38 5 0 39 -21 74 -47
79 -58 94 -68 139 -90 19 -9 47 -28 61 -40 26 -24 77 -53 159 -94 25 -12 61
-36 81 -54 20 -17 57 -42 82 -55 26 -13 54 -32 63 -41 15 -17 14 -21 -11 -51
-15 -17 -31 -42 -36 -55 -5 -13 -13 -23 -19 -23 -10 0 -71 -111 -103 -190 -10
-25 -23 -47 -28 -51 -5 -3 -34 -57 -63 -120 -29 -63 -64 -131 -79 -153 -15
-21 -37 -65 -49 -98 -12 -33 -27 -62 -34 -65 -24 -9 -88 44 -318 269 -171 166
-272 257 -327 291 -16 11 -29 23 -29 27 0 4 -33 32 -72 61 -40 30 -93 75 -116
101 -24 27 -49 48 -56 48 -7 0 -41 28 -77 63 -173 167 -320 302 -343 314 -35
18 -159 163 -196 229 -17 30 -39 63 -49 73 -42 42 -43 54 -11 144 16 46 37
126 45 178 9 52 20 114 26 139 5 25 16 99 24 165 8 66 18 127 21 135 6 14 34
269 54 480 23 253 31 511 26 885 -5 480 -20 977 -29 991 -3 6 -11 40 -17 77
-5 36 -13 73 -16 81 -5 14 8 16 98 16 69 0 164 10 279 29 96 16 239 35 319 41
249 20 449 39 625 59 296 35 610 51 985 51 212 0 361 4 370 10 31 20 47 11 54
-27z"/>
<path d="M16041 9554 c-24 -7 -66 -25 -94 -39 -28 -14 -57 -25 -64 -25 -22 0
-207 -80 -218 -94 -6 -8 -31 -24 -55 -37 -25 -13 -68 -38 -97 -56 -29 -18 -57
-33 -62 -33 -6 0 -14 -6 -18 -13 -4 -6 -28 -26 -53 -42 -24 -17 -63 -48 -85
-70 -23 -22 -68 -63 -101 -91 -32 -29 -77 -78 -99 -110 -22 -33 -45 -63 -52
-67 -7 -4 -13 -13 -13 -18 0 -6 -17 -36 -37 -67 -21 -32 -45 -69 -53 -83 -8
-15 -27 -44 -42 -66 -14 -22 -43 -80 -63 -129 -20 -49 -43 -96 -50 -104 -26
-30 -113 -310 -130 -420 -4 -25 -11 -50 -16 -56 -5 -7 -21 -79 -35 -160 -13
-82 -31 -183 -40 -224 -8 -41 -22 -147 -29 -235 -8 -88 -21 -185 -28 -215 -8
-30 -18 -75 -22 -100 -4 -25 -17 -103 -30 -175 -32 -177 -43 -460 -51 -1360
-6 -713 -6 -734 16 -915 30 -250 67 -481 80 -494 5 -5 10 -27 10 -48 0 -91 90
-436 125 -478 7 -8 38 -71 70 -140 31 -69 70 -139 86 -155 16 -17 29 -34 29
-38 0 -9 67 -107 87 -127 8 -8 38 -46 67 -85 88 -119 105 -132 226 -177 30
-11 60 -25 66 -29 15 -12 116 -45 230 -74 89 -24 109 -25 377 -25 254 0 297 3
432 25 106 18 167 33 210 54 33 16 100 41 148 56 99 30 160 57 226 99 24 15
62 36 85 46 22 10 62 35 87 57 26 21 72 56 104 78 32 22 85 64 118 93 33 28
64 52 69 52 13 0 181 160 278 265 38 41 152 202 182 258 53 97 128 269 128
292 0 38 -17 65 -43 65 -15 0 -66 44 -159 135 -75 74 -144 135 -153 135 -8 0
-18 7 -21 15 -7 18 -91 72 -126 80 -15 4 -32 13 -39 21 -17 21 -53 17 -80 -10
-13 -12 -44 -61 -69 -107 -25 -46 -59 -97 -75 -114 -17 -16 -72 -77 -122 -135
-51 -58 -118 -131 -150 -162 l-58 -58 -223 0 -223 0 -80 31 c-71 27 -98 46
-227 158 -88 77 -164 152 -189 187 -66 96 -171 295 -214 411 -23 60 -44 113
-48 118 -20 26 -71 213 -90 330 -40 252 -44 292 -48 510 -4 226 4 351 31 510
9 50 23 128 31 175 8 47 19 130 25 185 17 151 40 295 56 340 8 22 24 74 35
115 24 91 73 232 93 268 8 15 20 38 27 52 50 105 97 190 123 226 17 24 43 62
58 86 27 44 104 145 229 300 69 87 107 116 243 185 126 63 581 140 622 105 5
-5 36 -14 69 -21 33 -7 120 -33 194 -57 74 -24 138 -44 143 -44 6 0 22 -8 36
-18 31 -21 168 -72 195 -72 9 0 26 9 37 20 16 16 18 25 10 40 -8 15 -8 20 1
20 38 0 299 307 299 352 0 10 13 47 29 81 16 34 32 79 36 99 7 35 4 40 -43 85
-91 86 -266 223 -319 249 -18 9 -33 20 -33 24 0 5 -28 27 -62 50 -35 23 -88
61 -118 85 -30 24 -100 81 -155 125 -55 44 -125 92 -155 106 -30 15 -64 34
-75 44 -22 20 -79 44 -230 97 -55 19 -105 39 -111 44 -6 5 -46 18 -89 29 -70
18 -109 20 -364 19 -212 -1 -297 -5 -330 -15z m659 -84 c25 -6 59 -17 75 -24
46 -21 104 -43 165 -61 31 -9 81 -29 110 -44 198 -101 207 -106 350 -226 47
-40 116 -93 155 -119 38 -27 87 -63 108 -81 22 -19 53 -41 71 -49 17 -8 81
-57 141 -107 61 -51 123 -103 139 -116 l29 -24 -28 -64 c-15 -35 -33 -69 -41
-76 -7 -6 -16 -25 -20 -43 -3 -18 -25 -59 -49 -92 -55 -74 -48 -66 -133 -146
-43 -41 -72 -76 -72 -88 0 -11 -1 -20 -2 -20 -12 0 -116 45 -128 55 -8 7 -33
18 -55 24 -22 7 -94 30 -160 50 -322 102 -354 106 -548 70 -214 -39 -443 -107
-454 -136 -3 -7 -10 -13 -16 -13 -5 0 -25 -11 -43 -25 -18 -14 -37 -25 -43
-25 -5 0 -29 -23 -53 -51 -24 -29 -60 -70 -80 -92 -21 -21 -38 -44 -38 -49 0
-13 -77 -111 -96 -121 -8 -4 -14 -12 -14 -17 0 -6 -20 -37 -45 -71 -25 -34
-45 -66 -45 -71 0 -5 -15 -28 -34 -51 -18 -23 -55 -86 -82 -140 -27 -54 -56
-113 -65 -130 -10 -18 -38 -97 -64 -177 -26 -80 -50 -152 -55 -161 -9 -17 -32
-108 -49 -194 -5 -28 -15 -100 -21 -160 -6 -61 -19 -159 -30 -220 -10 -60 -22
-137 -26 -170 -4 -33 -13 -78 -21 -100 -11 -30 -16 -115 -20 -345 -5 -263 -4
-314 11 -371 9 -36 16 -81 16 -99 0 -98 97 -485 136 -546 8 -11 22 -45 33 -75
24 -71 81 -197 102 -229 9 -14 34 -56 55 -94 22 -38 46 -82 55 -97 35 -62 321
-320 394 -356 22 -11 72 -32 112 -47 71 -27 71 -27 310 -24 l239 3 68 59 c37
33 74 71 81 85 8 14 46 60 85 101 38 41 70 78 70 82 0 3 16 15 35 27 19 11 41
33 47 48 7 15 27 52 45 80 19 29 38 64 43 78 5 14 14 25 19 25 21 0 97 -39
115 -59 10 -11 37 -32 60 -45 23 -14 91 -76 151 -138 61 -62 121 -120 134
-128 l22 -15 -25 -45 c-14 -25 -39 -79 -57 -120 -31 -74 -147 -248 -203 -305
-16 -16 -36 -42 -45 -56 -9 -15 -40 -46 -69 -68 -29 -23 -69 -60 -90 -82 -20
-21 -41 -39 -46 -39 -10 0 -93 -65 -116 -90 -21 -24 -145 -110 -159 -110 -6 0
-18 -11 -26 -24 -9 -13 -57 -45 -108 -71 -51 -26 -99 -53 -107 -59 -26 -20
-87 -45 -203 -82 -62 -20 -119 -42 -128 -50 -9 -8 -83 -25 -165 -39 -134 -22
-177 -25 -431 -25 -222 0 -295 3 -345 16 -78 19 -190 54 -203 64 -5 4 -45 20
-88 35 -94 34 -156 85 -222 186 -26 38 -50 69 -53 69 -4 0 -23 25 -42 55 -19
31 -48 74 -64 97 -48 69 -161 303 -189 393 -32 99 -56 212 -67 304 -6 51 -14
101 -19 110 -12 23 -46 234 -72 446 -21 175 -21 201 -15 920 9 930 18 1171 51
1370 14 83 32 173 40 200 17 63 33 172 41 295 6 97 80 532 94 561 5 8 16 55
25 103 22 119 76 300 108 361 14 28 42 88 63 135 20 47 45 94 55 105 9 11 31
47 49 80 44 81 185 279 212 298 13 8 55 45 93 81 76 72 189 151 300 212 39 21
81 47 95 58 14 12 57 33 95 48 39 15 115 45 170 67 l100 40 285 0 c157 0 305
-4 330 -9z"/>
<path d="M3145 2879 c-78 -41 -111 -63 -167 -111 -31 -26 -61 -48 -66 -48 -12
0 -154 -165 -163 -188 -4 -10 -12 -58 -18 -107 -6 -50 -20 -160 -31 -245 -33
-253 -46 -556 -32 -728 7 -81 12 -208 12 -283 0 -132 15 -223 42 -256 34 -42
270 -124 352 -123 51 1 199 74 259 129 38 34 47 52 68 136 16 60 19 112 19
358 0 187 -4 295 -11 308 -6 12 -38 34 -72 50 -52 24 -75 29 -139 29 -96 0
-128 -11 -128 -44 0 -36 27 -46 120 -46 53 0 91 -5 110 -15 l30 -16 0 -277 c0
-356 -8 -392 -102 -451 -60 -38 -135 -71 -162 -71 -38 0 -190 40 -206 55 -8 7
-27 17 -42 20 -39 10 -45 41 -54 295 -12 313 -8 634 10 790 8 74 23 200 32
280 10 91 23 160 35 185 46 98 316 312 381 303 23 -3 23 -4 23 -171 0 -152 2
-170 18 -182 23 -16 44 -10 59 18 6 11 13 96 15 191 6 192 6 193 -65 220 -56
21 -79 20 -127 -5z"/>
<path d="M6682 2850 c-156 -59 -243 -105 -283 -147 -96 -102 -112 -161 -107
-402 l3 -176 39 -80 c30 -61 59 -101 125 -168 95 -98 166 -140 341 -203 71
-25 102 -42 123 -66 116 -137 167 -282 167 -474 0 -96 -2 -103 -29 -141 -26
-35 -36 -42 -92 -53 -35 -7 -152 -16 -259 -19 -107 -3 -201 -10 -207 -14 -21
-13 -15 -55 8 -68 33 -17 385 -6 474 15 95 22 126 43 163 110 30 52 32 62 32
158 0 57 -7 137 -15 179 -20 108 -84 247 -152 331 -59 73 -90 92 -212 133 -83
27 -206 92 -238 125 -15 16 -49 51 -75 77 -33 33 -57 71 -78 123 -29 73 -30
79 -30 245 0 166 1 171 28 230 40 85 89 118 284 196 76 30 103 37 118 29 10
-5 32 -10 49 -10 17 0 53 -9 81 -20 37 -15 56 -17 70 -10 41 22 29 62 -28 86
-36 15 -174 54 -189 54 -5 0 -54 -18 -111 -40z"/>
<path d="M4604 2871 c-15 -7 -26 -28 -39 -76 -15 -58 -17 -91 -11 -268 4 -111
10 -501 15 -867 5 -450 11 -673 18 -691 14 -33 36 -42 59 -25 16 12 17 50 15
617 -1 332 -6 669 -11 749 -5 80 -9 213 -9 295 l1 150 22 -50 c13 -27 31 -82
39 -120 9 -39 23 -86 31 -105 8 -19 35 -109 61 -200 26 -91 61 -196 79 -235
18 -38 41 -94 51 -124 20 -60 47 -93 70 -85 19 8 122 216 165 334 17 47 37 96
44 110 14 25 61 192 68 240 8 53 18 -273 27 -930 6 -408 13 -696 19 -711 14
-36 38 -43 63 -18 20 20 21 27 15 262 -4 133 -11 548 -17 922 -5 374 -12 698
-15 720 -8 61 -25 96 -49 105 -64 24 -102 -37 -110 -177 -8 -122 -39 -278 -70
-348 -8 -16 -36 -90 -64 -164 -27 -74 -59 -143 -69 -154 -20 -19 -20 -19 -42
39 -12 32 -25 63 -30 69 -4 5 -13 30 -20 55 -13 48 -74 259 -117 400 -34 114
-80 230 -101 257 -20 25 -58 36 -88 24z"/>
<path d="M3940 2824 c-6 -14 -10 -49 -10 -79 0 -30 -6 -84 -14 -122 -8 -37
-22 -113 -30 -168 -22 -136 -35 -192 -58 -244 -11 -25 -31 -90 -44 -145 -32
-130 -75 -278 -85 -291 -12 -16 -69 -302 -69 -349 0 -55 -27 -278 -48 -396
-19 -108 -18 -130 5 -147 26 -20 51 2 67 60 22 78 50 281 65 467 6 63 15 138
21 165 l11 50 234 0 234 0 6 -35 c15 -84 66 -281 89 -346 14 -39 33 -106 41
-150 30 -151 47 -209 63 -221 21 -17 29 -16 51 6 16 16 18 26 10 58 -5 21 -21
97 -35 168 -14 72 -32 139 -38 150 -14 23 -49 136 -65 210 -27 127 -63 273
-75 305 -21 53 -54 252 -81 490 -20 174 -31 235 -62 345 -30 105 -76 203 -106
227 -33 26 -66 23 -77 -8z m105 -269 c15 -54 38 -187 51 -295 13 -107 28 -222
33 -255 13 -86 39 -230 47 -259 5 -22 2 -25 -28 -31 -40 -8 -354 -3 -362 6 -3
3 1 30 10 60 45 159 53 190 69 259 10 41 28 98 41 125 20 44 49 173 85 385 14
81 21 112 24 108 2 -2 15 -48 30 -103z"/>
<path d="M5478 2825 c-7 -16 -5 -32 7 -61 31 -75 45 -332 56 -1019 12 -771 17
-892 40 -908 12 -9 105 -11 353 -7 314 5 339 6 351 23 17 24 9 46 -22 58 -13
5 -156 9 -317 9 l-292 0 -12 188 c-17 257 -16 722 1 722 6 0 93 -7 192 -15 99
-8 186 -15 193 -15 20 0 52 38 45 56 -10 26 -47 34 -246 50 -106 8 -193 16
-194 18 -1 1 -5 112 -8 246 -6 227 -28 540 -40 571 -4 12 45 13 299 11 298 -3
305 -3 325 17 28 28 13 58 -32 65 -17 3 -180 7 -360 9 l-329 4 -10 -22z"/>
</g>
</svg>
