<?xml version="1.0" encoding="UTF-8"?>
<svg version="1.1" xmlns="http://www.w3.org/2000/svg" width="230" height="230">
<path d="M0 0 C75.9 0 151.8 0 230 0 C230 75.9 230 151.8 230 230 C154.1 230 78.2 230 0 230 C0 154.1 0 78.2 0 0 Z " fill="#7F96C2" transform="translate(0,0)"/>
<path d="M0 0 C4.24562154 1.29528768 7.92103147 2.91921264 11.7734375 5.1171875 C12.8459375 5.72433594 13.9184375 6.33148438 15.0234375 6.95703125 C16.68246094 7.90642578 16.68246094 7.90642578 18.375 8.875 C25.17841183 12.7478342 31.95217498 16.58754944 39 20 C39.02578125 19.27554688 39.0515625 18.55109375 39.078125 17.8046875 C39.43283215 11.75854287 39.94290699 7.7730506 44 3 C44.4125 2.38125 44.825 1.7625 45.25 1.125 C47.70267423 -0.45171915 50.05433041 -0.64738139 52.9296875 -0.5625 C56.84170289 0.5003872 58.86302371 3.73168333 61 7 C62.21693876 9.43387753 62.31959896 11.41838846 62.5625 14.125 C62.64628906 15.03507813 62.73007813 15.94515625 62.81640625 16.8828125 C62.87699219 17.58148438 62.93757813 18.28015625 63 19 C64.65 19 66.3 19 68 19 C68 18.34 68 17.68 68 17 C74.75 14 74.75 14 77 14 C77 13.34 77 12.68 77 12 C78.65 11.67 80.3 11.34 82 11 C82 10.34 82 9.68 82 9 C84.28929053 7.82845707 86.58118362 6.66261926 88.875 5.5 C89.85146484 4.99919922 89.85146484 4.99919922 90.84765625 4.48828125 C95.7734375 2 95.7734375 2 98 2 C98 1.34 98 0.68 98 0 C99.32 0 100.64 0 102 0 C102 0.66 102 1.32 102 2 C98.9536569 4.17595936 95.79264147 6.13055908 92.625 8.125 C91.75875 8.74375 90.8925 9.3625 90 10 C90 10.66 90 11.32 90 12 C90.99 12.33 91.98 12.66 93 13 C94.25946494 14.48552275 95.51619739 15.97420641 96.7265625 17.5 C98.27936439 19.32906726 100.00854376 20.67236251 102 22 C101.67 22.66 101.34 23.32 101 24 C100.13117188 23.18273437 99.26234375 22.36546875 98.3671875 21.5234375 C97.20408559 20.47289384 96.03996936 19.42347242 94.875 18.375 C94.02035156 17.56289062 94.02035156 17.56289062 93.1484375 16.734375 C91.47705857 15.25292549 89.99007515 14.01730175 88 13 C84.74127782 13.44702136 84.74127782 13.44702136 82 15 C81.01 15.33 80.02 15.66 79 16 C79.77537109 17.46373047 79.77537109 17.46373047 80.56640625 18.95703125 C81.23229533 20.24191582 81.89763128 21.52708715 82.5625 22.8125 C82.90474609 23.45509766 83.24699219 24.09769531 83.59960938 24.75976562 C84.4765023 26.46926395 85.24515617 28.23321294 86 30 C85.67 30.99 85.34 31.98 85 33 C83.66101601 31.04532248 82.32870953 29.0866421 81 27.125 C79.88625 25.48917969 79.88625 25.48917969 78.75 23.8203125 C77 21 77 21 77 19 C75.24890978 19.62193894 73.49916969 20.24767998 71.75 20.875 C70.77546875 21.22304687 69.8009375 21.57109375 68.796875 21.9296875 C65.75029501 23.04318423 65.75029501 23.04318423 62 25 C62 40.18 62 55.36 62 71 C66.95 71 71.9 71 77 71 C77 71.66 77 72.32 77 73 C77.55454865 72.99777939 78.10909729 72.99555878 78.68045044 72.99327087 C107.81281967 72.88223993 136.88013304 73.07921369 166 74 C166 88.19 166 102.38 166 117 C90.1 117 14.2 117 -64 117 C-64 102.81 -64 88.62 -64 74 C-34.32040925 73.06151492 -4.69222721 72.88110168 25 73 C25 72.34 25 71.68 25 71 C29.62 71 34.24 71 39 71 C39.33 55.82 39.66 40.64 40 25 C36.74826806 23.37413403 33.65996881 22.09284601 30.25 20.875 C29.26515625 20.52179688 28.2803125 20.16859375 27.265625 19.8046875 C26.51796875 19.53914063 25.7703125 19.27359375 25 19 C24.731875 19.72574219 24.46375 20.45148438 24.1875 21.19921875 C23.01329619 23.96864024 21.6605676 26.30919434 20 28.8125 C19.484375 29.60269531 18.96875 30.39289063 18.4375 31.20703125 C17.963125 31.79871094 17.48875 32.39039063 17 33 C16.34 33 15.68 33 15 33 C15.33 31.68 15.66 30.36 16 29 C16.66 29 17.32 29 18 29 C18.4021875 27.7315625 18.4021875 27.7315625 18.8125 26.4375 C20.0478595 22.86145933 21.476988 19.46139092 23 16 C21.34302621 15.30959426 19.6744239 14.6469365 18 14 C17.38640625 13.72414063 16.7728125 13.44828125 16.140625 13.1640625 C13.78418161 12.74878336 13.78418161 12.74878336 11.5625 14.80078125 C10.716875 15.62964844 9.87125 16.45851562 9 17.3125 C3.71671098 22.44276693 3.71671098 22.44276693 0 24 C1.38132461 20.8731209 2.97903763 18.80079608 5.4375 16.4375 C6.33275391 15.56931641 6.33275391 15.56931641 7.24609375 14.68359375 C7.82488281 14.12800781 8.40367188 13.57242188 9 13 C10.00227014 12.0022753 11.00305341 11.00304412 12 10 C11.13375 9.44570312 10.2675 8.89140625 9.375 8.3203125 C8.24976195 7.58890777 7.1247748 6.85711693 6 6.125 C5.14148438 5.57779297 5.14148438 5.57779297 4.265625 5.01953125 C2.80818084 4.06525233 1.39962775 3.03722413 0 2 C0 1.34 0 0.68 0 0 Z " fill="#E8EBFC" transform="translate(64,113)"/>
<path d="M0 0 C4.24562154 1.29528768 7.92103147 2.91921264 11.7734375 5.1171875 C12.8459375 5.72433594 13.9184375 6.33148438 15.0234375 6.95703125 C16.68246094 7.90642578 16.68246094 7.90642578 18.375 8.875 C25.17841183 12.7478342 31.95217498 16.58754944 39 20 C39.02578125 19.27554688 39.0515625 18.55109375 39.078125 17.8046875 C39.43283215 11.75854287 39.94290699 7.7730506 44 3 C44.4125 2.38125 44.825 1.7625 45.25 1.125 C47.70267423 -0.45171915 50.05433041 -0.64738139 52.9296875 -0.5625 C56.84170289 0.5003872 58.86302371 3.73168333 61 7 C62.21693876 9.43387753 62.31959896 11.41838846 62.5625 14.125 C62.64628906 15.03507813 62.73007813 15.94515625 62.81640625 16.8828125 C62.87699219 17.58148438 62.93757813 18.28015625 63 19 C64.65 19 66.3 19 68 19 C68 18.34 68 17.68 68 17 C74.75 14 74.75 14 77 14 C77 13.34 77 12.68 77 12 C78.65 11.67 80.3 11.34 82 11 C82 10.34 82 9.68 82 9 C84.28929053 7.82845707 86.58118362 6.66261926 88.875 5.5 C89.85146484 4.99919922 89.85146484 4.99919922 90.84765625 4.48828125 C95.7734375 2 95.7734375 2 98 2 C98 1.34 98 0.68 98 0 C99.32 0 100.64 0 102 0 C102 0.66 102 1.32 102 2 C98.9536569 4.17595936 95.79264147 6.13055908 92.625 8.125 C91.75875 8.74375 90.8925 9.3625 90 10 C90 10.66 90 11.32 90 12 C90.99 12.33 91.98 12.66 93 13 C94.25946494 14.48552275 95.51619739 15.97420641 96.7265625 17.5 C98.27936439 19.32906726 100.00854376 20.67236251 102 22 C101.67 22.66 101.34 23.32 101 24 C100.13117188 23.18273437 99.26234375 22.36546875 98.3671875 21.5234375 C97.20408559 20.47289384 96.03996936 19.42347242 94.875 18.375 C94.02035156 17.56289062 94.02035156 17.56289062 93.1484375 16.734375 C91.47705857 15.25292549 89.99007515 14.01730175 88 13 C84.74127782 13.44702136 84.74127782 13.44702136 82 15 C81.01 15.33 80.02 15.66 79 16 C79.77537109 17.46373047 79.77537109 17.46373047 80.56640625 18.95703125 C81.23229533 20.24191582 81.89763128 21.52708715 82.5625 22.8125 C82.90474609 23.45509766 83.24699219 24.09769531 83.59960938 24.75976562 C84.4765023 26.46926395 85.24515617 28.23321294 86 30 C85.67 30.99 85.34 31.98 85 33 C83.66101601 31.04532248 82.32870953 29.0866421 81 27.125 C79.88625 25.48917969 79.88625 25.48917969 78.75 23.8203125 C77 21 77 21 77 19 C75.24890978 19.62193894 73.49916969 20.24767998 71.75 20.875 C70.77546875 21.22304687 69.8009375 21.57109375 68.796875 21.9296875 C65.75029501 23.04318423 65.75029501 23.04318423 62 25 C62 40.18 62 55.36 62 71 C66.95 71 71.9 71 77 71 C77 71.66 77 72.32 77 73 C77.55454865 72.99777939 78.10909729 72.99555878 78.68045044 72.99327087 C107.80568072 72.88226714 136.88999478 73.00251873 166 74 C166 76.64 166 79.28 166 82 C90.1 82 14.2 82 -64 82 C-64 79.36 -64 76.72 -64 74 C-34.33012822 72.98333439 -4.68517587 72.88112991 25 73 C25 72.34 25 71.68 25 71 C29.62 71 34.24 71 39 71 C39.33 55.82 39.66 40.64 40 25 C36.74826806 23.37413403 33.65996881 22.09284601 30.25 20.875 C29.26515625 20.52179688 28.2803125 20.16859375 27.265625 19.8046875 C26.51796875 19.53914063 25.7703125 19.27359375 25 19 C24.731875 19.72574219 24.46375 20.45148438 24.1875 21.19921875 C23.01329619 23.96864024 21.6605676 26.30919434 20 28.8125 C19.484375 29.60269531 18.96875 30.39289063 18.4375 31.20703125 C17.963125 31.79871094 17.48875 32.39039063 17 33 C16.34 33 15.68 33 15 33 C15.33 31.68 15.66 30.36 16 29 C16.66 29 17.32 29 18 29 C18.4021875 27.7315625 18.4021875 27.7315625 18.8125 26.4375 C20.0478595 22.86145933 21.476988 19.46139092 23 16 C21.34302621 15.30959426 19.6744239 14.6469365 18 14 C17.38640625 13.72414063 16.7728125 13.44828125 16.140625 13.1640625 C13.78418161 12.74878336 13.78418161 12.74878336 11.5625 14.80078125 C10.716875 15.62964844 9.87125 16.45851562 9 17.3125 C3.71671098 22.44276693 3.71671098 22.44276693 0 24 C1.38132461 20.8731209 2.97903763 18.80079608 5.4375 16.4375 C6.33275391 15.56931641 6.33275391 15.56931641 7.24609375 14.68359375 C7.82488281 14.12800781 8.40367188 13.57242188 9 13 C10.00227014 12.0022753 11.00305341 11.00304412 12 10 C11.13375 9.44570312 10.2675 8.89140625 9.375 8.3203125 C8.24976195 7.58890777 7.1247748 6.85711693 6 6.125 C5.14148438 5.57779297 5.14148438 5.57779297 4.265625 5.01953125 C2.80818084 4.06525233 1.39962775 3.03722413 0 2 C0 1.34 0 0.68 0 0 Z " fill="#ECEEF5" transform="translate(64,113)"/>
<path d="M0 0 C4.24562154 1.29528768 7.92103147 2.91921264 11.7734375 5.1171875 C13.3821875 6.02791016 13.3821875 6.02791016 15.0234375 6.95703125 C16.12945312 7.58996094 17.23546875 8.22289063 18.375 8.875 C25.17841183 12.7478342 31.95217498 16.58754944 39 20 C39.03867188 18.91332031 39.03867188 18.91332031 39.078125 17.8046875 C39.43283215 11.75854287 39.94290699 7.7730506 44 3 C44.61875 2.071875 44.61875 2.071875 45.25 1.125 C47.70267423 -0.45171915 50.05433041 -0.64738139 52.9296875 -0.5625 C56.84170289 0.5003872 58.86302371 3.73168333 61 7 C62.21693876 9.43387753 62.31959896 11.41838846 62.5625 14.125 C62.64628906 15.03507813 62.73007813 15.94515625 62.81640625 16.8828125 C62.87699219 17.58148438 62.93757813 18.28015625 63 19 C64.65 19 66.3 19 68 19 C68 18.34 68 17.68 68 17 C74.75 14 74.75 14 77 14 C77 13.34 77 12.68 77 12 C79.475 11.505 79.475 11.505 82 11 C82 10.34 82 9.68 82 9 C84.28929053 7.82845707 86.58118362 6.66261926 88.875 5.5 C89.52597656 5.16613281 90.17695313 4.83226563 90.84765625 4.48828125 C95.7734375 2 95.7734375 2 98 2 C98 1.34 98 0.68 98 0 C99.32 0 100.64 0 102 0 C102 0.66 102 1.32 102 2 C98.9536569 4.17595936 95.79264147 6.13055908 92.625 8.125 C91.75875 8.74375 90.8925 9.3625 90 10 C90 10.66 90 11.32 90 12 C90.99 12.33 91.98 12.66 93 13 C94.25946494 14.48552275 95.51619739 15.97420641 96.7265625 17.5 C98.27936439 19.32906726 100.00854376 20.67236251 102 22 C101.67 22.66 101.34 23.32 101 24 C100.13117188 23.18273437 99.26234375 22.36546875 98.3671875 21.5234375 C97.20408559 20.47289384 96.03996936 19.42347242 94.875 18.375 C94.02035156 17.56289062 94.02035156 17.56289062 93.1484375 16.734375 C91.47705857 15.25292549 89.99007515 14.01730175 88 13 C84.74127782 13.44702136 84.74127782 13.44702136 82 15 C81.01 15.33 80.02 15.66 79 16 C79.51691406 16.97582031 80.03382813 17.95164063 80.56640625 18.95703125 C81.23229533 20.24191582 81.89763128 21.52708715 82.5625 22.8125 C82.90474609 23.45509766 83.24699219 24.09769531 83.59960938 24.75976562 C84.4765023 26.46926395 85.24515617 28.23321294 86 30 C85.505 31.485 85.505 31.485 85 33 C83.66101601 31.04532248 82.32870953 29.0866421 81 27.125 C80.2575 26.03445312 79.515 24.94390625 78.75 23.8203125 C77 21 77 21 77 19 C75.24890978 19.62193894 73.49916969 20.24767998 71.75 20.875 C70.77546875 21.22304687 69.8009375 21.57109375 68.796875 21.9296875 C65.75029501 23.04318423 65.75029501 23.04318423 62 25 C62 40.51 62 56.02 62 72 C60.68 72 59.36 72 58 72 C57.99453156 70.82942047 57.99453156 70.82942047 57.98895264 69.63519287 C57.95107426 62.27808729 57.89422428 54.92148819 57.81609726 47.56470871 C57.77659994 43.78254215 57.74442289 40.00060917 57.72900391 36.21826172 C57.7138516 32.56752365 57.67943304 28.91742766 57.63169098 25.2669754 C57.61686216 23.87479485 57.60895812 22.48252263 57.60811615 21.09026337 C57.60574966 19.13916835 57.57640445 17.18816264 57.54589844 15.23730469 C57.53701599 14.1269989 57.52813354 13.01669312 57.51898193 11.8727417 C56.87995063 8.33548584 55.82684531 7.15960895 53 5 C49.85518209 4.19684346 49.85518209 4.19684346 47 4 C44.87326094 7.4815874 44.72888955 10.28735135 44.68115234 14.32910156 C44.66128265 15.61012756 44.64141296 16.89115356 44.62094116 18.21099854 C44.60906564 19.6042056 44.59740273 20.9974145 44.5859375 22.390625 C44.56722168 23.8198152 44.54764795 25.24899441 44.5272522 26.67816162 C44.47596852 30.43291736 44.43632284 34.18770892 44.39910889 37.94262695 C44.35904551 41.7769453 44.30796385 45.61111517 44.2578125 49.4453125 C44.16109785 56.96343972 44.07667899 64.4816389 44 72 C42.68 72 41.36 72 40 72 C38.88906321 66.74081773 38.95451527 61.78035376 39.12109375 56.4453125 C39.15651024 55.09299026 39.15651024 55.09299026 39.19264221 53.71334839 C39.26885724 50.85038837 39.35306155 47.98772811 39.4375 45.125 C39.49076295 43.17709771 39.54350302 41.22918106 39.59570312 39.28125 C39.72441494 34.52064562 39.86028953 29.76029378 40 25 C36.8126237 23.37049864 33.62364921 22.07987472 30.25 20.875 C28.77273437 20.34519531 28.77273437 20.34519531 27.265625 19.8046875 C26.51796875 19.53914063 25.7703125 19.27359375 25 19 C24.731875 19.72574219 24.46375 20.45148438 24.1875 21.19921875 C23.01329619 23.96864024 21.6605676 26.30919434 20 28.8125 C19.484375 29.60269531 18.96875 30.39289063 18.4375 31.20703125 C17.963125 31.79871094 17.48875 32.39039063 17 33 C16.34 33 15.68 33 15 33 C15.33 31.68 15.66 30.36 16 29 C16.66 29 17.32 29 18 29 C18.268125 28.154375 18.53625 27.30875 18.8125 26.4375 C20.0478595 22.86145933 21.476988 19.46139092 23 16 C21.34302621 15.30959426 19.6744239 14.6469365 18 14 C17.38640625 13.72414063 16.7728125 13.44828125 16.140625 13.1640625 C13.78418161 12.74878336 13.78418161 12.74878336 11.5625 14.80078125 C10.716875 15.62964844 9.87125 16.45851562 9 17.3125 C3.71671098 22.44276693 3.71671098 22.44276693 0 24 C1.38132461 20.8731209 2.97903763 18.80079608 5.4375 16.4375 C6.03433594 15.85871094 6.63117188 15.27992188 7.24609375 14.68359375 C8.11427734 13.85021484 8.11427734 13.85021484 9 13 C10.00227014 12.0022753 11.00305341 11.00304412 12 10 C11.13375 9.44570312 10.2675 8.89140625 9.375 8.3203125 C8.24976195 7.58890777 7.1247748 6.85711693 6 6.125 C5.42765625 5.76019531 4.8553125 5.39539063 4.265625 5.01953125 C2.80818084 4.06525233 1.39962775 3.03722413 0 2 C0 1.34 0 0.68 0 0 Z " fill="#FCFCF9" transform="translate(64,113)"/>
<path d="M0 0 C3.15987389 0.5687773 4.8822275 1.25237022 7.08847046 3.60336304 C9.61004617 8.36937498 8.71735354 14.35415669 8.61328125 19.61328125 C8.60394836 20.99617736 8.59683449 22.37909007 8.59184265 23.76200867 C8.57280948 27.39069775 8.5237432 31.01837604 8.46832275 34.64666748 C8.4170491 38.35349861 8.39431147 42.06049411 8.36914062 45.76757812 C8.31561813 53.03306488 8.2277155 60.29751167 8.125 67.5625 C3.505 67.5625 -1.115 67.5625 -5.875 67.5625 C-5.94279472 59.41739851 -5.99782669 51.27251662 -6.03043652 43.12720871 C-6.04608812 39.34495302 -6.06731679 35.56290049 -6.10131836 31.78076172 C-6.13393041 28.13031265 -6.15185682 24.48005891 -6.15963173 20.8294754 C-6.16517198 19.43720678 -6.17599084 18.04494877 -6.19219017 16.65276337 C-6.21398623 14.70188332 -6.21522559 12.75080646 -6.21557617 10.79980469 C-6.22223801 9.6894989 -6.22889984 8.57919312 -6.23576355 7.4352417 C-5.68297194 3.03339036 -4.42684285 0.86612143 0 0 Z " fill="#ACB7CF" transform="translate(113.875,116.4375)"/>
<path d="M0 0 C1.85564203 -0.00136036 3.71128379 -0.00314382 5.56692505 -0.00531006 C10.53574676 -0.00980802 15.50454735 -0.00812706 20.47336936 -0.00493097 C25.71392094 -0.00236849 30.95447092 -0.00475549 36.19502258 -0.00631714 C44.98597533 -0.00812713 53.77691963 -0.00576291 62.56787109 -0.00097656 C72.68526914 0.00446888 82.80264704 0.0026966 92.9200446 -0.00280297 C101.66123077 -0.00736152 110.40241093 -0.00797144 119.1435979 -0.0053643 C124.34064076 -0.0038172 129.53767419 -0.00356434 134.73471642 -0.00690079 C139.62113881 -0.00981981 144.50753556 -0.0077309 149.39395523 -0.00200653 C151.17151281 -0.00070054 152.9490726 -0.00103553 154.72662926 -0.0032692 C166.30869553 -0.01646557 177.81077504 0.37021757 189.3684082 1.12939453 C189.3684082 1.78939453 189.3684082 2.44939453 189.3684082 3.12939453 C113.4684082 3.12939453 37.5684082 3.12939453 -40.6315918 3.12939453 C-40.6315918 2.46939453 -40.6315918 1.80939453 -40.6315918 1.12939453 C-27.07610988 0.38556457 -13.57480823 -0.01712259 0 0 Z " fill="#FCE9A5" transform="translate(40.631591796875,191.87060546875)"/>
<path d="M0 0 C0 1.65 0 3.3 0 5 C-1.21558594 5.13277344 -2.43117188 5.26554688 -3.68359375 5.40234375 C-5.26825484 5.58050091 -6.8528889 5.75889875 -8.4375 5.9375 C-9.23994141 6.02451172 -10.04238281 6.11152344 -10.86914062 6.20117188 C-14.75576664 6.30548394 -14.75576664 6.30548394 -18 8 C-26.57741497 9.37306445 -35.34456387 9.10512675 -44 9 C-44 9.66 -44 10.32 -44 11 C-48.95 11 -53.9 11 -59 11 C-58.67 10.34 -58.34 9.68 -58 9 C-65.26 9 -72.52 9 -80 9 C-80.33 9.66 -80.66 10.32 -81 11 C-85.95 11 -90.9 11 -96 11 C-95.67 10.34 -95.34 9.68 -95 9 C-95.66 8.67 -96.32 8.34 -97 8 C-97 7.34 -97 6.68 -97 6 C-73.37809541 4.01675164 -73.37809541 4.01675164 -68.18823242 5.52734375 C-65.42738889 6.12368349 -63.060387 5.92625426 -60.24609375 5.6953125 C-58.59383789 5.56189453 -58.59383789 5.56189453 -56.90820312 5.42578125 C-55.76287109 5.32652344 -54.61753906 5.22726563 -53.4375 5.125 C-52.28830078 5.03347656 -51.13910156 4.94195312 -49.95507812 4.84765625 C-43.88358888 4.41155771 -43.88358888 4.41155771 -38 3 C-35.72822271 2.71269123 -33.45099487 2.46774898 -31.171875 2.24609375 C-30.17102875 2.14833397 -30.17102875 2.14833397 -29.14996338 2.04859924 C-27.73799985 1.91161632 -26.32586398 1.77639987 -24.91357422 1.64282227 C-22.77128091 1.43951955 -20.62979003 1.2289664 -18.48828125 1.01757812 C-17.11202144 0.88497717 -15.7357205 0.75280229 -14.359375 0.62109375 C-13.11639648 0.5017749 -11.87341797 0.38245605 -10.59277344 0.25952148 C-7.04763469 0.00344086 -3.55296996 -0.04536799 0 0 Z " fill="#DEE0F3" transform="translate(230,217)"/>
<path d="M0 0 C1.32 0 2.64 0 4 0 C4 0.66 4 1.32 4 2 C0.9536569 4.17595936 -2.20735853 6.13055908 -5.375 8.125 C-6.24125 8.74375 -7.1075 9.3625 -8 10 C-8 10.66 -8 11.32 -8 12 C-7.01 12.33 -6.02 12.66 -5 13 C-3.74053506 14.48552275 -2.48380261 15.97420641 -1.2734375 17.5 C0.27936439 19.32906726 2.00854376 20.67236251 4 22 C3.67 22.66 3.34 23.32 3 24 C2.13117188 23.18273437 1.26234375 22.36546875 0.3671875 21.5234375 C-0.79591441 20.47289384 -1.96003064 19.42347242 -3.125 18.375 C-3.69476563 17.83359375 -4.26453125 17.2921875 -4.8515625 16.734375 C-6.52294143 15.25292549 -8.00992485 14.01730175 -10 13 C-13.25872218 13.44702136 -13.25872218 13.44702136 -16 15 C-16.99 15.33 -17.98 15.66 -19 16 C-18.48308594 16.97582031 -17.96617187 17.95164063 -17.43359375 18.95703125 C-16.76770467 20.24191582 -16.10236872 21.52708715 -15.4375 22.8125 C-14.92413086 23.77639648 -14.92413086 23.77639648 -14.40039062 24.75976562 C-13.5234977 26.46926395 -12.75484383 28.23321294 -12 30 C-12.33 30.99 -12.66 31.98 -13 33 C-14.33898399 31.04532248 -15.67129047 29.0866421 -17 27.125 C-17.7425 26.03445312 -18.485 24.94390625 -19.25 23.8203125 C-21 21 -21 21 -21 19 C-22.75109022 19.62193894 -24.50083031 20.24767998 -26.25 20.875 C-27.22453125 21.22304687 -28.1990625 21.57109375 -29.203125 21.9296875 C-32.24970499 23.04318423 -32.24970499 23.04318423 -36 25 C-36 35.89 -36 46.78 -36 58 C-36.33 58 -36.66 58 -37 58 C-37.16956929 52.95060328 -37.32988683 47.90102165 -37.48217773 42.85107422 C-37.53506486 41.13843166 -37.59034146 39.42586095 -37.64819336 37.71337891 C-37.97240469 28.06597742 -38.15502671 18.61117114 -37 9 C-36.67 9 -36.34 9 -36 9 C-35.67 12.3 -35.34 15.6 -35 19 C-33.35 19 -31.7 19 -30 19 C-30 18.34 -30 17.68 -30 17 C-23.25 14 -23.25 14 -21 14 C-21 13.34 -21 12.68 -21 12 C-19.35 11.67 -17.7 11.34 -16 11 C-16 10.34 -16 9.68 -16 9 C-13.71070947 7.82845707 -11.41881638 6.66261926 -9.125 5.5 C-8.47402344 5.16613281 -7.82304687 4.83226563 -7.15234375 4.48828125 C-2.2265625 2 -2.2265625 2 0 2 C0 1.34 0 0.68 0 0 Z " fill="#F2F4F3" transform="translate(162,113)"/>
<path d="M0 0 C29.37 0 58.74 0 89 0 C89 0.99 89 1.98 89 3 C59.32157112 3.17580405 29.67033787 2.67029693 0 2 C0 1.34 0 0.68 0 0 Z " fill="#C0B9C0" transform="translate(141,184)"/>
<path d="M0 0 C29.37 0 58.74 0 89 0 C89 0.66 89 1.32 89 2 C59.32966213 2.67029693 29.67842888 3.17580405 0 3 C0 2.01 0 1.02 0 0 Z " fill="#C3BAC1" transform="translate(0,184)"/>
<path d="M0 0 C4.27753859 1.30472266 7.98982169 2.95134157 11.87890625 5.15234375 C12.96494141 5.76400391 14.05097656 6.37566406 15.16992188 7.00585938 C16.28947266 7.64330078 17.40902344 8.28074219 18.5625 8.9375 C20.24762695 9.88786133 20.24762695 9.88786133 21.96679688 10.85742188 C24.98355742 12.5620798 27.99741332 14.27049948 31 16 C31.94351318 16.50088135 32.88702637 17.0017627 33.85913086 17.51782227 C34.56561768 18.00694092 35.27210449 18.49605957 36 19 C36 19.99 36 20.98 36 22 C32.37 21.01 28.74 20.02 25 19 C24.01 21.475 24.01 21.475 23 24 C22.04542117 25.63160349 21.04494699 27.23724241 20 28.8125 C19.484375 29.60269531 18.96875 30.39289063 18.4375 31.20703125 C17.963125 31.79871094 17.48875 32.39039063 17 33 C16.34 33 15.68 33 15 33 C15.33 31.68 15.66 30.36 16 29 C16.66 29 17.32 29 18 29 C18.268125 28.154375 18.53625 27.30875 18.8125 26.4375 C20.0478595 22.86145933 21.476988 19.46139092 23 16 C21.34302621 15.30959426 19.6744239 14.6469365 18 14 C17.38640625 13.72414063 16.7728125 13.44828125 16.140625 13.1640625 C13.78418161 12.74878336 13.78418161 12.74878336 11.5625 14.80078125 C10.716875 15.62964844 9.87125 16.45851562 9 17.3125 C3.71671098 22.44276693 3.71671098 22.44276693 0 24 C1.38132461 20.8731209 2.97903763 18.80079608 5.4375 16.4375 C6.03433594 15.85871094 6.63117188 15.27992188 7.24609375 14.68359375 C8.11427734 13.85021484 8.11427734 13.85021484 9 13 C10.00227014 12.0022753 11.00305341 11.00304412 12 10 C11.13375 9.44570312 10.2675 8.89140625 9.375 8.3203125 C8.24976195 7.58890777 7.1247748 6.85711693 6 6.125 C5.42765625 5.76019531 4.8553125 5.39539063 4.265625 5.01953125 C2.80818084 4.06525233 1.39962775 3.03722413 0 2 C0 1.34 0 0.68 0 0 Z " fill="#F5F6F4" transform="translate(64,113)"/>
<path d="M0 0 C13.86 0.99 13.86 0.99 28 2 C28 2.66 28 3.32 28 4 C32.29 4 36.58 4 41 4 C41 4.66 41 5.32 41 6 C35.39 6 29.78 6 24 6 C24 6.66 24 7.32 24 8 C16.08 8 8.16 8 0 8 C0 5.36 0 2.72 0 0 Z " fill="#E0E3F4" transform="translate(0,222)"/>
<path d="M0 0 C0.91007812 0.00902344 1.82015625 0.01804688 2.7578125 0.02734375 C3.80582031 0.04474609 3.80582031 0.04474609 4.875 0.0625 C4.875 2.0425 4.875 4.0225 4.875 6.0625 C-0.21531755 6.11186158 -5.30549643 6.14820105 -10.39599609 6.17236328 C-12.12844265 6.18243376 -13.86087216 6.19609089 -15.59326172 6.21337891 C-18.08044639 6.23758162 -20.56740675 6.24897239 -23.0546875 6.2578125 C-23.83182098 6.26813507 -24.60895447 6.27845764 -25.40963745 6.28909302 C-27.31625493 6.28949271 -29.22231036 6.1848214 -31.125 6.0625 C-31.785 5.4025 -32.445 4.7425 -33.125 4.0625 C-32.12597656 4.00191406 -31.12695312 3.94132813 -30.09765625 3.87890625 C-28.80730469 3.79511719 -27.51695312 3.71132812 -26.1875 3.625 C-24.89972656 3.54378906 -23.61195313 3.46257812 -22.28515625 3.37890625 C-19.26476043 3.41330812 -19.26476043 3.41330812 -18.125 2.0625 C-16.31688816 1.85353683 -14.50283968 1.69469639 -12.6875 1.5625 C-8.19508653 1.2345011 -4.49889957 -0.0576782 0 0 Z " fill="#D3D5EB" transform="translate(225.125,223.9375)"/>
<path d="M0 0 C2.31 0 4.62 0 7 0 C7 0.66 7 1.32 7 2 C8.12277344 1.98839844 9.24554688 1.97679687 10.40234375 1.96484375 C18.01306916 1.91048749 25.4500307 1.90182265 33 3 C33 3.66 33 4.32 33 5 C18.15 5 3.3 5 -12 5 C-12 4.34 -12 3.68 -12 3 C-7.9472484 2.01751476 -4.16138263 1.91840426 0 2 C0 1.34 0 0.68 0 0 Z " fill="#F6E5AE" transform="translate(111,184)"/>
<path d="M0 0 C2.19629783 3.54143525 2.23275752 6.39667247 2.1953125 10.515625 C2.18564453 12.39121094 2.18564453 12.39121094 2.17578125 14.3046875 C2.15902344 15.60664062 2.14226562 16.90859375 2.125 18.25 C2.11597656 19.56742188 2.10695313 20.88484375 2.09765625 22.2421875 C2.07408533 25.49497462 2.04118022 28.74739589 2 32 C0.68 32 -0.64 32 -2 32 C-2.04946866 27.92492428 -2.08575189 23.84996503 -2.10986328 19.7746582 C-2.1199157 18.38855952 -2.1335597 17.00248201 -2.15087891 15.61645508 C-2.17515952 13.6233025 -2.18542031 11.62999467 -2.1953125 9.63671875 C-2.20578613 8.43748779 -2.21625977 7.23825684 -2.22705078 6.00268555 C-2 3 -2 3 0 0 Z " fill="#506490" transform="translate(118,21)"/>
<path d="M0 0 C3.62558736 0.30591728 7.25033575 0.62084718 10.875 0.9375 C12.42380859 1.06801758 12.42380859 1.06801758 14.00390625 1.20117188 C15.48310547 1.33168945 15.48310547 1.33168945 16.9921875 1.46484375 C17.90339355 1.543396 18.81459961 1.62194824 19.75341797 1.70288086 C22 2 22 2 24 3 C26.66924933 3.27239898 29.3246084 3.49553271 32 3.68359375 C33.62502129 3.80766414 35.25002067 3.9320219 36.875 4.05664062 C39.44246451 4.2488559 42.01006474 4.4382215 44.578125 4.62231445 C47.05275847 4.80141225 49.52632757 4.99173872 52 5.18359375 C52.77085938 5.23575546 53.54171875 5.28791718 54.3359375 5.34165955 C59.77323424 5.77323424 59.77323424 5.77323424 62 8 C52.27342548 8.11237377 42.69570954 7.92972557 33 7 C33 6.34 33 5.68 33 5 C32.20078125 5.01160156 31.4015625 5.02320313 30.578125 5.03515625 C23.03261255 5.0971499 15.48718487 5.04562409 8 4 C7.67 3.67 7.34 3.34 7 3 C4.67182036 2.63239269 2.3381615 2.29758419 0 2 C0 1.34 0 0.68 0 0 Z " fill="#E0E2F5" transform="translate(0,218)"/>
<path d="M0 0 C3.96032131 1.41851509 7.16088899 3.31117587 10.625 5.6875 C16.34823478 9.5716308 22.14788078 13.31362569 28 17 C28.66 16.34 29.32 15.68 30 15 C31.06546953 18.1964086 31.07427838 20.65747276 31 24 C29.68 24 28.36 24 27 24 C26.34 24.33 25.68 24.66 25 25 C25.165 24.29746094 25.33 23.59492187 25.5 22.87109375 C24.9001901 19.42687282 24.28630693 19.11556569 21.5625 17.09765625 C20.05319117 16.06882404 18.53168525 15.05771313 17 14.0625 C15.49919007 13.05459038 13.99918716 12.04547803 12.5 11.03515625 C11.75878906 10.53902832 11.01757812 10.04290039 10.25390625 9.53173828 C7.9555776 7.96981086 5.6857808 6.37926951 3.4375 4.74609375 C2.77621094 4.26712646 2.11492188 3.78815918 1.43359375 3.29467773 C0.96050781 2.86743408 0.48742187 2.44019043 0 2 C0 1.34 0 0.68 0 0 Z " fill="#505D83" transform="translate(4,84)"/>
<path d="M0 0 C4.46788317 1.34841519 8.32932094 3.11498054 12.375 5.4375 C13.43460938 6.03433594 14.49421875 6.63117188 15.5859375 7.24609375 C16.38257812 7.82488281 17.17921875 8.40367188 18 9 C18 9.99 18 10.98 18 12 C17.30519531 12.22429687 16.61039063 12.44859375 15.89453125 12.6796875 C12.33872901 14.30163238 9.61209839 16.5877421 6.6875 19.125 C6.13771484 19.59292969 5.58792969 20.06085938 5.02148438 20.54296875 C3.67603591 21.68952483 2.337321 22.84397451 1 24 C1 21 1 21 2.64453125 19.0625 C3.71767578 18.0415625 3.71767578 18.0415625 4.8125 17 C5.52019531 16.319375 6.22789063 15.63875 6.95703125 14.9375 C7.63121094 14.298125 8.30539063 13.65875 9 13 C10.00333145 12.00334259 11.00472061 11.00469843 12 10 C11.13375 9.44570312 10.2675 8.89140625 9.375 8.3203125 C8.24976195 7.58890777 7.1247748 6.85711693 6 6.125 C5.42765625 5.76019531 4.8553125 5.39539063 4.265625 5.01953125 C2.80818084 4.06525233 1.39962775 3.03722413 0 2 C0 1.34 0 0.68 0 0 Z " fill="#F8F9F6" transform="translate(64,113)"/>
<path d="M0 0 C0 0.66 0 1.32 0 2 C-1.21558594 2.13277344 -2.43117187 2.26554688 -3.68359375 2.40234375 C-5.26825484 2.58050091 -6.8528889 2.75889875 -8.4375 2.9375 C-9.64116211 3.06801758 -9.64116211 3.06801758 -10.86914062 3.20117188 C-14.75576664 3.30548394 -14.75576664 3.30548394 -18 5 C-26.57741497 6.37306445 -35.34456387 6.10512675 -44 6 C-41.15720303 3.15720303 -38.92221147 3.51537037 -34.9453125 3.18359375 C-33.89837723 3.0915139 -33.89837723 3.0915139 -32.83029175 2.99757385 C-30.59582906 2.80238633 -28.36058402 2.61935441 -26.125 2.4375 C-23.89678505 2.25009129 -21.66883519 2.06010696 -19.44113159 1.86671448 C-17.41447976 1.69172456 -15.38718176 1.52426717 -13.35986328 1.35717773 C-0.48880129 -0.01110912 -0.48880129 -0.01110912 0 0 Z " fill="#DBDEF2" transform="translate(230,220)"/>
<path d="M0 0 C0 0.66 0 1.32 0 2 C-15.75956381 4.64600913 -31.010402 6.19904064 -47 6 C-47 5.67 -47 5.34 -47 5 C-45.97060303 4.91697632 -45.97060303 4.91697632 -44.92041016 4.83227539 C-41.82157565 4.57994697 -38.72330016 4.32130351 -35.625 4.0625 C-34.00464844 3.93198242 -34.00464844 3.93198242 -32.3515625 3.79882812 C-31.3203125 3.71181641 -30.2890625 3.62480469 -29.2265625 3.53515625 C-28.27346191 3.456604 -27.32036133 3.37805176 -26.33837891 3.29711914 C-23.98168205 3.12871826 -23.98168205 3.12871826 -22 2 C-20.59015738 1.78223398 -19.17303382 1.61029202 -17.75390625 1.46484375 C-16.49803711 1.33432617 -16.49803711 1.33432617 -15.21679688 1.20117188 C-14.34087891 1.11416016 -13.46496094 1.02714844 -12.5625 0.9375 C-11.69044922 0.84662109 -10.81839844 0.75574219 -9.91992188 0.66210938 C-6.59158919 0.32185707 -3.34828541 0 0 0 Z " fill="#EBEDFC" transform="translate(230,218)"/>
<path d="M0 0 C9.05293337 -0.13534286 17.97859571 0.24258075 27 1 C26.67 1.66 26.34 2.32 26 3 C23.9375 3.625 23.9375 3.625 22 4 C22 4.66 22 5.32 22 6 C17.38 6 12.76 6 8 6 C8.33 4.68 8.66 3.36 9 2 C6.03 1.67 3.06 1.34 0 1 C0 0.67 0 0.34 0 0 Z " fill="#DEDFF2" transform="translate(54,222)"/>
<path d="M0 0 C0.33 0 0.66 0 1 0 C1 3.63 1 7.26 1 11 C2.32 11 3.64 11 5 11 C4.6875 12.9375 4.6875 12.9375 4 15 C3.01 15.33 2.02 15.66 1 16 C1 26.89 1 37.78 1 49 C0.67 49 0.34 49 0 49 C-0.16956929 43.95060328 -0.32988683 38.90102165 -0.48217773 33.85107422 C-0.53506486 32.13843166 -0.59034146 30.42586095 -0.64819336 28.71337891 C-0.97240469 19.06597742 -1.15502671 9.61117114 0 0 Z " fill="#F4F6F5" transform="translate(125,122)"/>
<path d="M0 0 C0.33 0 0.66 0 1 0 C-0.08411215 22.1682243 -0.08411215 22.1682243 -4 30 C-4.66 30 -5.32 30 -6 30 C-5.35651536 23.40428243 -4.32134691 16.99183479 -3 10.5 C-2.82210937 9.59507813 -2.64421875 8.69015625 -2.4609375 7.7578125 C-2.28820312 6.89929687 -2.11546875 6.04078125 -1.9375 5.15625 C-1.78152344 4.38087891 -1.62554687 3.60550781 -1.46484375 2.80664062 C-1 1 -1 1 0 0 Z " fill="#495C89" transform="translate(161,39)"/>
<path d="M0 0 C2.64 0 5.28 0 8 0 C8 1.32 8 2.64 8 4 C0.74 4 -6.52 4 -14 4 C-14 3.34 -14 2.68 -14 2 C-9.38 2 -4.76 2 0 2 C0 1.34 0 0.68 0 0 Z " fill="#EBEEFB" transform="translate(222,226)"/>
<path d="M0 0 C0.99 0 1.98 0 3 0 C3 0.66 3 1.32 3 2 C5.31 2 7.62 2 10 2 C9.67 2.66 9.34 3.32 9 4 C8.34 4 7.68 4 7 4 C7 5.98 7 7.96 7 10 C7.66 10 8.32 10 9 10 C8.67 10.99 8.34 11.98 8 13 C6.0625 12.625 6.0625 12.625 4 12 C2.5216774 9.04335481 2.93967217 6.25770263 3 3 C2.01 3 1.02 3 0 3 C0 2.01 0 1.02 0 0 Z " fill="#4C5B83" transform="translate(113,53)"/>
<path d="M0 0 C0.33 0.66 0.66 1.32 1 2 C-2.93928186 4.97748317 -6.88232709 7.93157069 -10.9375 10.75 C-14.01708535 12.65415572 -14.01708535 12.65415572 -15 15 C-15.66 15 -16.32 15 -17 15 C-17 15.66 -17 16.32 -17 17 C-17.99 17 -18.98 17 -20 17 C-20 17.66 -20 18.32 -20 19 C-20.66 18.67 -21.32 18.34 -22 18 C-20.47816584 13.73886435 -17.69447581 12.40621297 -14 10 C-11.90671152 8.45086238 -9.82328886 6.88830372 -7.75 5.3125 C-2.22009569 1.11004785 -2.22009569 1.11004785 0 0 Z " fill="#BAC0D8" transform="translate(212,78)"/>
<path d="M0 0 C0.8971875 0.309375 0.8971875 0.309375 1.8125 0.625 C0.08677512 2.06663007 -1.6432347 3.50313165 -3.375 4.9375 C-4.81939453 6.13826172 -4.81939453 6.13826172 -6.29296875 7.36328125 C-8.84338917 9.35611988 -11.37392401 11.03561246 -14.1875 12.625 C-12.80286056 9.49750593 -11.19227577 7.3845015 -8.75 5 C-8.15316406 4.40960938 -7.55632812 3.81921875 -6.94140625 3.2109375 C-2.85006507 -0.48858258 -2.85006507 -0.48858258 0 0 Z " fill="#D9DFE7" transform="translate(78.1875,124.375)"/>
<path d="M0 0 C2.97 0.33 5.94 0.66 9 1 C8.34 1.66 7.68 2.32 7 3 C6.01 3 5.02 3 4 3 C4 3.66 4 4.32 4 5 C4.66 5 5.32 5 6 5 C6 6.98 6 8.96 6 11 C5.01 11.33 4.02 11.66 3 12 C1.63047327 9.26094655 1.87378639 7.02912668 2 4 C2.33 3.34 2.66 2.68 3 2 C2.01 1.67 1.02 1.34 0 1 C0 0.67 0 0.34 0 0 Z " fill="#53628A" transform="translate(151,70)"/>
<path d="M0 0 C4.50188793 2.06843499 6.92197559 5.21166226 10 9 C12.16220617 10.8126505 12.16220617 10.8126505 14 12 C13.67 12.66 13.34 13.32 13 14 C10.87406947 12.20942753 8.74922444 10.41759447 6.625 8.625 C6.02171875 8.11710938 5.4184375 7.60921875 4.796875 7.0859375 C3.92675781 6.35117188 3.92675781 6.35117188 3.0390625 5.6015625 C2.50490723 5.15119629 1.97075195 4.70083008 1.42041016 4.23681641 C0.23658322 3.20600388 -0.89004039 2.10995961 -2 1 C-1.34 0.67 -0.68 0.34 0 0 Z " fill="#E1E6EB" transform="translate(152,123)"/>
<path d="M0 0 C0.94875 0.350625 1.8975 0.70125 2.875 1.0625 C2.875 2.3825 2.875 3.7025 2.875 5.0625 C-1.125 5.0625 -1.125 5.0625 -4.125 4.0625 C-4.8125 2 -4.8125 2 -5.125 0.0625 C-3.125 -0.9375 -3.125 -0.9375 0 0 Z " fill="#5B688D" transform="translate(77.125,65.9375)"/>
<path d="M0 0 C1.32 0 2.64 0 4 0 C4 0.66 4 1.32 4 2 C1.8125 3.5078125 1.8125 3.5078125 -1 5.125 C-1.928125 5.66382812 -2.85625 6.20265625 -3.8125 6.7578125 C-4.8953125 7.37269531 -4.8953125 7.37269531 -6 8 C-5.66015625 6.078125 -5.66015625 6.078125 -5 4 C-2.4375 2.75 -2.4375 2.75 0 2 C0 1.34 0 0.68 0 0 Z " fill="#E5E9ED" transform="translate(162,113)"/>
<path d="M0 0 C0.90492188 0.02320313 1.80984375 0.04640625 2.7421875 0.0703125 C4.10730469 0.09738281 4.10730469 0.09738281 5.5 0.125 C6.19867188 0.14820313 6.89734375 0.17140625 7.6171875 0.1953125 C7.6171875 0.8553125 7.6171875 1.5153125 7.6171875 2.1953125 C4.9771875 2.1953125 2.3371875 2.1953125 -0.3828125 2.1953125 C-0.3828125 2.8553125 -0.3828125 3.5153125 -0.3828125 4.1953125 C-1.7028125 3.5353125 -3.0228125 2.8753125 -4.3828125 2.1953125 C-2.3828125 0.1953125 -2.3828125 0.1953125 0 0 Z " fill="#DADDF1" transform="translate(222.3828125,223.8046875)"/>
<path d="M0 0 C0.66 0.33 1.32 0.66 2 1 C0.63016497 4.16115776 0.0109362 4.9927092 -3 7 C-3.66 7 -4.32 7 -5 7 C-5 6.34 -5 5.68 -5 5 C-5.99 4.67 -6.98 4.34 -8 4 C-6.35 4 -4.7 4 -3 4 C-3 3.34 -3 2.68 -3 2 C-2.01 1.34 -1.02 0.68 0 0 Z " fill="#E0E5EA" transform="translate(135,128)"/>
<path d="M0 0 C1.98 0 3.96 0 6 0 C5.67 1.32 5.34 2.64 5 4 C3.35 4 1.7 4 0 4 C0 2.68 0 1.36 0 0 Z " fill="#DFE1F6" transform="translate(0,226)"/>
<path d="M0 0 C1 3 1 3 0.07421875 5.04296875 C-0.61220703 6.10451172 -0.61220703 6.10451172 -1.3125 7.1875 C-1.76238281 7.90292969 -2.21226563 8.61835938 -2.67578125 9.35546875 C-3.11277344 9.89816406 -3.54976563 10.44085938 -4 11 C-4.66 11 -5.32 11 -6 11 C-5.67 9.68 -5.34 8.36 -5 7 C-4.34 7 -3.68 7 -3 7 C-2.690625 6.030625 -2.38125 5.06125 -2.0625 4.0625 C-1 1 -1 1 0 0 Z " fill="#DEE3EA" transform="translate(85,135)"/>
<path d="M0 0 C0.99 0 1.98 0 3 0 C3 0.66 3 1.32 3 2 C3.99 2 4.98 2 6 2 C5.67 3.32 5.34 4.64 5 6 C4.34 5.67 3.68 5.34 3 5 C3 4.34 3 3.68 3 3 C2.01 3 1.02 3 0 3 C0 2.01 0 1.02 0 0 Z " fill="#57678F" transform="translate(113,53)"/>
<path d="M0 0 C1.65 0 3.3 0 5 0 C5 0.33 5 0.66 5 1 C6.65 1.33 8.3 1.66 10 2 C10 2.33 10 2.66 10 3 C6.7 3 3.4 3 0 3 C0 2.01 0 1.02 0 0 Z " fill="#E3E5F7" transform="translate(0,222)"/>
<path d="M0 0 C5.66153846 1.47692308 5.66153846 1.47692308 7.375 4.125 C7.684375 5.053125 7.684375 5.053125 8 6 C5.0280615 4.87548273 2.66559313 3.77706209 0 2 C0 1.34 0 0.68 0 0 Z " fill="#E9EDF0" transform="translate(64,113)"/>
<path d="M0 0 C1.98 0.66 3.96 1.32 6 2 C6 2.99 6 3.98 6 5 C4.35 4.67 2.7 4.34 1 4 C0.67 2.68 0.34 1.36 0 0 Z " fill="#566184" transform="translate(35,105)"/>
<path d="M0 0 C2.95929119 2.75520215 5.03681826 5.46627288 7 9 C6.01 9 5.02 9 4 9 C0 2.25 0 2.25 0 0 Z " fill="#9DA4BF" transform="translate(67,54)"/>
<path d="M0 0 C1.98 0 3.96 0 6 0 C5.01 0.495 5.01 0.495 4 1 C4 1.66 4 2.32 4 3 C3.01 3 2.02 3 1 3 C1 3.66 1 4.32 1 5 C0.34 4.67 -0.32 4.34 -1 4 C-0.67 2.68 -0.34 1.36 0 0 Z " fill="#B4BAD3" transform="translate(191,92)"/>
</svg>
